<svg version="1.2" xmlns="http://www.w3.org/2000/svg" viewBox="0 0 255 255" width="255" height="255">
	<title>logo</title>
	<defs>
		<clipPath clipPathUnits="userSpaceOnUse" id="cp1">
			<path d="m180.47 116.43c1.8-1.04 4.02-1.04 5.82 0l48.56 28.04c1.8 1.04 2.91 2.96 2.91 5.03v56.08c0 2.08-1.11 4-2.91 5.03l-48.56 28.04c-1.8 1.04-4.02 1.04-5.82 0l-48.56-28.04c-1.8-1.03-2.91-2.95-2.91-5.03v-56.08c0-2.07 1.11-3.99 2.91-5.03zm25.59 61.14c0-12.46-10.14-22.53-22.68-22.53-12.54 0-22.68 10.07-22.68 22.53 0 12.46 10.14 22.54 22.68 22.54 12.54 0 22.68-10.08 22.68-22.54z"/>
		</clipPath>
		<clipPath clipPathUnits="userSpaceOnUse" id="cp2">
			<path d="m180.47 116.43c1.8-1.04 4.02-1.04 5.82 0l48.56 28.04c1.8 1.04 2.91 2.96 2.91 5.03v56.08c0 2.08-1.11 4-2.91 5.03l-48.56 28.04c-1.8 1.04-4.02 1.04-5.82 0l-48.56-28.04c-1.8-1.03-2.91-2.95-2.91-5.03v-56.08c0-2.07 1.11-3.99 2.91-5.03zm25.59 61.14c0-12.46-10.14-22.53-22.68-22.53-12.54 0-22.68 10.07-22.68 22.53 0 12.46 10.14 22.54 22.68 22.54 12.54 0 22.68-10.08 22.68-22.54z"/>
		</clipPath>
		<clipPath clipPathUnits="userSpaceOnUse" id="cp3">
			<path d="m123.19 15.82c1.8-1.04 4.01-1.04 5.81 0l48.57 28.03c1.8 1.04 2.9 2.96 2.9 5.04v56.08c0 2.07-1.1 3.99-2.9 5.03l-48.57 28.04c-1.8 1.04-4.01 1.04-5.81 0l-48.56-28.04c-1.8-1.04-2.91-2.96-2.91-5.03v-56.08c0-2.08 1.11-4 2.91-5.04zm25.59 61.15c0-12.46-10.14-22.54-22.69-22.54-12.54 0-22.68 10.08-22.68 22.54 0 12.46 10.14 22.54 22.68 22.54 12.55 0 22.69-10.08 22.69-22.54z"/>
		</clipPath>
		<clipPath clipPathUnits="userSpaceOnUse" id="cp4">
			<path d="m123.19 15.82c1.8-1.04 4.01-1.04 5.81 0l48.57 28.03c1.8 1.04 2.9 2.96 2.9 5.04v56.08c0 2.07-1.1 3.99-2.9 5.03l-48.57 28.04c-1.8 1.04-4.01 1.04-5.81 0l-48.56-28.04c-1.8-1.04-2.91-2.96-2.91-5.03v-56.08c0-2.08 1.11-4 2.91-5.04zm25.59 61.15c0-12.46-10.14-22.54-22.69-22.54-12.54 0-22.68 10.08-22.68 22.54 0 12.46 10.14 22.54 22.68 22.54 12.55 0 22.69-10.08 22.69-22.54z"/>
		</clipPath>
		<clipPath clipPathUnits="userSpaceOnUse" id="cp5">
			<path d="m65.9 116.43c1.8-1.04 4.02-1.04 5.82 0l48.56 28.04c1.8 1.04 2.91 2.96 2.91 5.03v56.08c0 2.08-1.11 4-2.91 5.03l-48.56 28.04c-1.8 1.04-4.02 1.04-5.82 0l-48.56-28.04c-1.8-1.03-2.91-2.95-2.91-5.03v-56.08c0-2.07 1.11-3.99 2.91-5.03zm25.59 61.14c0-12.46-10.14-22.53-22.68-22.53-12.54 0-22.68 10.07-22.68 22.53 0 12.46 10.14 22.54 22.68 22.54 12.54 0 22.68-10.08 22.68-22.54z"/>
		</clipPath>
		<clipPath clipPathUnits="userSpaceOnUse" id="cp6">
			<path d="m65.9 116.43c1.8-1.04 4.02-1.04 5.82 0l48.56 28.04c1.8 1.04 2.91 2.96 2.91 5.03v56.08c0 2.08-1.11 4-2.91 5.03l-48.56 28.04c-1.8 1.04-4.02 1.04-5.82 0l-48.56-28.04c-1.8-1.03-2.91-2.95-2.91-5.03v-56.08c0-2.07 1.11-3.99 2.91-5.03zm25.59 61.14c0-12.46-10.14-22.53-22.68-22.53-12.54 0-22.68 10.07-22.68 22.53 0 12.46 10.14 22.54 22.68 22.54 12.54 0 22.68-10.08 22.68-22.54z"/>
		</clipPath>
	</defs>
	<style>
		.s0 { fill: #d9d9d9 } 
		.s1 { fill: #ae774e } 
		.s2 { fill: #68544f } 
		.s3 { fill: #6b5049 } 
	</style>
	<g id="Folder 1">
		<g id="Clip-Path" clip-path="url(#cp1)">
			<g>
				<g id="Clip-Path" clip-path="url(#cp2)">
					<g>
						<path class="s0" d="m180.5 116.4c1.8-1 4-1 5.8 0l48.6 28.1c1.8 1 2.9 2.9 2.9 5v56.1c0 2.1-1.1 4-2.9 5l-48.6 28.1c-1.8 1-4 1-5.8 0l-48.6-28.1c-1.8-1-2.9-2.9-2.9-5v-56.1c0-2.1 1.1-4 2.9-5z"/>
						<path fill-rule="evenodd" class="s1" d="m237.8 115.7v123.8h-108.8v-123.8z"/>
						<path class="s2" d="m145.2 160.1l-3.3-6.3c-0.6-1.2-1.8-2.1-3.1-2.3l-6.6-1.3c-2.5-0.4-4.1-2.9-3.4-5.4l2.8-10 4.1-14.9c0.5-1.6 1.7-2.7 3.2-3.1l41.6-10.2c2.7-0.6 5.4 1.5 5.4 4.3v10.2c0 1-0.4 2-1.1 2.7l-6.8 8.2c-1.3 1.7-1.3 4 0 5.6l3.4 4c2.1 2.5 0.9 6.3-2.2 7.1l-11.3 3q-0.7 0.2-1.2 0.5l-15.3 9.6c-2.2 1.4-5.1 0.6-6.2-1.7z"/>
						<path class="s2" d="m161 173.6l4.7 4q0.7 0.6 1.1 1.3l6.4 12.2c0.6 1 0.7 2.2 0.3 3.3l-0.5 1.7c-0.7 2.5-3.4 3.8-5.8 2.8l-1.9-0.8c-1.6-0.6-3.4-0.3-4.6 0.8l-0.8 0.7c-0.8 0.7-1.8 1.1-2.9 1.1h-2.9c-1.7 0-3.2-0.9-3.9-2.4l-1.7-3.2c-0.7-1.5-0.6-3.2 0.4-4.5l1.7-2.4c0.5-0.8 0.8-1.7 0.8-2.6v-7.3c0-1.6 0.8-3.1 2.2-3.9l2.4-1.3c1.6-0.9 3.6-0.7 5 0.5z"/>
						<path class="s3" d="m208.7 217.4l1.8 11.9c0.4 2.6 3.1 4.3 5.6 3.5l34.2-10.3c2.2-0.6 3.5-2.9 3-5.1l-5.2-23.3c-0.4-2-2.2-3.4-4.2-3.4h-14.5c-0.7 0-1.4-0.2-2.1-0.6l-4.3-2.4c-2.9-1.6-6.5 0.5-6.5 3.8v6.2q0 1-0.4 1.8l-7 15.4c-0.4 0.8-0.5 1.7-0.4 2.5z"/>
						<path class="s2" d="m206.5 148.2l5.5-10c0.4-0.8 1-1.4 1.8-1.8l16.5-8.6c2.2-1.2 4.9-0.3 5.9 1.9l8.9 18c0.8 1.7 0.5 3.7-0.9 5.1l-9.9 9.5-1.4 1.4c-0.8 0.8-1.9 1.2-3.1 1.2h-4c-1.5 0-2.9-0.8-3.7-2.1l-1.7-2.7c-0.8-1.3-2.2-2.1-3.7-2.1h-4c-1.4 0-2.8-0.7-3.6-1.9l-2.3-3.3c-1-1.4-1.1-3.2-0.3-4.6z"/>
					</g>
				</g>
			</g>
		</g>
		<g id="Clip-Path" clip-path="url(#cp3)">
			<g>
				<g id="Clip-Path" clip-path="url(#cp4)">
					<g>
						<path class="s0" d="m123.2 15.8c1.8-1 4-1 5.8 0l48.6 28.1c1.8 1 2.9 2.9 2.9 5v56.1c0 2-1.1 4-2.9 5l-48.6 28c-1.8 1.1-4 1.1-5.8 0l-48.6-28c-1.8-1-2.9-3-2.9-5v-56.1c0-2.1 1.1-4 2.9-5z"/>
						<path fill-rule="evenodd" class="s1" d="m180.5 15v123.9h-108.8v-123.9z"/>
						<path class="s2" d="m93.9 89.3l8.2 5.9c0.8 0.5 1.7 0.8 2.6 0.8h11.6c1.1 0 2.3-0.5 3.1-1.3l8.4-8.7 14.5-13.7c0.9-0.8 1.4-2 1.4-3.2v-7.7c0-1.4-0.7-2.6-1.7-3.5l-7.3-5.5-6.3-3.8c-1.1-0.6-2.4-0.8-3.6-0.4l-12.5 4q-0.7 0.2-1.3 0.7l-3.3 2.4q-0.4 0.3-0.8 0.5l-10.2 4.7c-0.8 0.3-1.4 0.8-1.8 1.5l-2 3c-1 1.4-1 3.1-0.2 4.6l1.9 3.4c0.6 1 0.7 2.3 0.4 3.5l-2.7 7.9c-0.5 1.8 0.1 3.8 1.6 4.9z"/>
						<path class="s2" d="m129.9 26.9l6.4-9.4c1.4-2 4.3-2.5 6.2-1l34 25.9c2.3 1.7 2.2 5.2-0.1 6.9l-8.6 6.4c-2.1 1.6-5 1-6.4-1.3l-3.8-6.6c-0.7-1.2-1.9-2-3.3-2.2l-13.5-1.4c-1.2-0.2-2.3-0.8-3-1.8l-7.8-10.5c-1.1-1.5-1.2-3.5-0.1-5z"/>
						<path class="s2" d="m109.9 123.2l-2.8 1.3c-3.2 1.6-3.3 6.3 0 7.9l20.7 10.3c1.3 0.6 2.8 0.6 4.1-0.1l14-7.7c1.6-0.9 2.5-2.7 2.2-4.6l-0.6-3.2c-0.4-2.5-2.9-4.1-5.3-3.4l-11.3 2.9q-1 0.2-2.1 0l-16-3.8c-1-0.2-2-0.1-2.9 0.4z"/>
						<path class="s2" d="m149.6 103.7l-6 1.4c-2.9 0.7-4.1 4-2.5 6.4 1 1.3 2.6 1.9 4.1 1.6l9.9-1.9q0.4-0.1 0.8-0.1h8c2.4 0 4.4-1.9 4.4-4.3v-4.4c0-1.4 3.4-5.9 5.8-8.8 0.6-0.8 1-1.8 1-2.8v-11.9c0-1.5-0.8-2.8-2-3.7l-5.7-3.7c-1.6-1-3.8-0.9-5.3 0.4l-1.9 1.8c-0.6 0.5-1.1 1.2-1.3 2l-3.3 10.9q-0.1 0.4-0.4 0.8l-3.2 5.7c-0.7 1.3-0.7 3 0.2 4.3 1.6 2.4 0.3 5.7-2.6 6.3z"/>
					</g>
				</g>
				<path class="s3" d="m80.4 31h-26.2c-3.1 0-5.2 3.2-4 6.1l15.2 36.9c1 2.3 3.7 3.3 6 2.2l7.1-3.5c1.3-0.6 2.2-1.8 2.4-3.2l1.7-10.9q0.2-0.8 0.6-1.5l6.4-10.8c0.8-1.4 0.8-3.2-0.1-4.6l-5.4-8.6c-0.8-1.3-2.2-2.1-3.7-2.1z"/>
			</g>
		</g>
		<g id="Clip-Path" clip-path="url(#cp5)">
			<g>
				<g id="Clip-Path" clip-path="url(#cp6)">
					<g>
						<path class="s0" d="m65.9 116.4c1.8-1 4-1 5.8 0l48.6 28.1c1.8 1 2.9 2.9 2.9 5v56.1c0 2.1-1.1 4-2.9 5l-48.6 28.1c-1.8 1-4 1-5.8 0l-48.6-28.1c-1.8-1-2.9-2.9-2.9-5v-56.1c0-2.1 1.1-4 2.9-5z"/>
						<path fill-rule="evenodd" class="s1" d="m123.2 115.7v123.8h-108.8v-123.8z"/>
						<path class="s3" d="m52.4 133.4l-3.7-21.9c-0.5-2.9 1.9-5.4 4.8-5.1l88.3 10.3c2.4 0.3 4.1 2.5 3.8 4.9l-4.2 33.2c-0.4 3.1-3.7 4.8-6.4 3.3l-25.5-13.7c-2.7-1.5-6.1 0.5-6.1 3.6 0 3.6-4.3 5.5-7 3l-11.3-10.9c-0.8-0.7-1.7-1.1-2.7-1.2l-26-1.9c-2-0.2-3.7-1.7-4-3.6z"/>
						<path class="s2" d="m30.4 185.9l-21-9.1c-2.7-1.3-5.9 0.7-6.1 3.7l-2.3 44.8c-0.1 2.5 1.9 4.6 4.4 4.6h23.5c1.9 0 3.5-1.1 4.2-2.9l6.4-18.2c0.3-1 0.3-2.1-0.1-3.1l-6.7-17.4c-0.4-1.1-1.3-2-2.3-2.4z"/>
						<path class="s2" d="m80.7 226.3v19.8c0 2.7 2.4 4.7 5 4.3l38-5.6c1.9-0.3 3.4-1.8 3.7-3.8l4.9-40.1c0.3-2.6-1.7-4.8-4.3-4.8h-6.6c-1.7 0-3.3 1-4 2.6l-2 4.6c-0.8 1.8-2.7 2.9-4.7 2.6l-14.9-2.1c-1.8-0.3-3.6 0.6-4.5 2.2l-10 18.1c-0.4 0.7-0.6 1.4-0.6 2.2z"/>
						<path class="s2" d="m40.9 161.4v4.3c0 2 1.4 3.8 3.3 4.3l12.9 3.2c2.4 0.5 4.9-1 5.3-3.4l2.1-9.9c0.3-1.7-0.4-3.5-1.8-4.5l-2.6-1.8c-1.5-1.1-3.7-1.1-5.2 0.1l-3.1 2.5c-0.7 0.6-1.7 0.9-2.7 0.9h-3.8c-2.5 0-4.4 1.9-4.4 4.3z"/>
					</g>
				</g>
			</g>
		</g>
	</g>
</svg>