<svg width="768" height="772" viewBox="0 0 768 772" fill="none" xmlns="http://www.w3.org/2000/svg">
<rect width="768" height="772" fill="#1E1E1E"/>
<mask id="mask0_0_1" style="mask-type:alpha" maskUnits="userSpaceOnUse" x="394" y="346" width="375" height="426">
<path d="M571.001 348.679C577.189 345.107 584.813 345.107 591.001 348.679L758.002 445.097C764.19 448.67 768.002 455.273 768.002 462.418V655.254C768.002 662.399 764.19 669.001 758.002 672.574L591.001 768.992C584.813 772.565 577.189 772.565 571.001 768.992L404 672.574C397.812 669.001 394 662.399 394 655.254V462.418C394 455.273 397.812 448.67 404 445.097L571.001 348.679ZM581 481.453C537.922 481.453 503 516.151 503 558.953C503 601.755 537.922 636.453 581 636.453C624.078 636.453 659 601.755 659 558.953C659 516.151 624.078 481.453 581 481.453Z" fill="#AE774E"/>
</mask>
<g mask="url(#mask0_0_1)">
<mask id="mask1_0_1" style="mask-type:alpha" maskUnits="userSpaceOnUse" x="394" y="346" width="375" height="426">
<path d="M571.001 348.679C577.189 345.107 584.813 345.107 591.001 348.679L758.002 445.097C764.19 448.67 768.002 455.273 768.002 462.418V655.254C768.002 662.399 764.19 669.001 758.002 672.574L591.001 768.992C584.813 772.565 577.189 772.565 571.001 768.992L404 672.574C397.812 669.001 394 662.399 394 655.254V462.418C394 455.273 397.812 448.67 404 445.097L571.001 348.679ZM581 481.453C537.922 481.453 503 516.151 503 558.953C503 601.755 537.922 636.453 581 636.453C624.078 636.453 659 601.755 659 558.953C659 516.151 624.078 481.453 581 481.453Z" fill="#AE774E"/>
</mask>
<g mask="url(#mask1_0_1)">
<path d="M571.001 348.68C577.189 345.107 584.813 345.107 591.001 348.68L758.002 445.097C764.19 448.67 768.002 455.273 768.002 462.418V655.254C768.002 662.399 764.19 669.002 758.002 672.574L591.001 768.992C584.813 772.565 577.189 772.565 571.001 768.992L404 672.574C397.812 669.002 394 662.399 394 655.254V462.418C394 455.273 397.812 448.67 404 445.097L571.001 348.68Z" fill="#D9D9D9"/>
<rect x="394" y="346" width="374" height="426" fill="#AE774E"/>
<path d="M449.541 498.921L438.364 477.076C436.243 472.93 432.316 470.004 427.736 469.158L405.146 464.984C396.475 463.381 391.049 454.68 393.427 446.189L403 412L417.162 360.503C418.605 355.254 422.779 351.2 428.067 349.909L570.943 315.03C580.39 312.724 589.5 319.878 589.5 329.602V364.569C589.5 368.078 588.27 371.476 586.023 374.172L562.55 402.34C557.893 407.928 557.917 416.052 562.607 421.613L574.242 435.408C581.335 443.819 577.26 456.751 566.626 459.576L527.698 469.916C526.241 470.303 524.851 470.908 523.574 471.709L470.87 504.793C463.414 509.473 453.55 506.758 449.541 498.921Z" fill="#68544F"/>
<path d="M503.944 545.245L520.304 559.135C521.755 560.367 522.958 561.864 523.849 563.545L546.083 605.497C547.95 609.02 548.338 613.141 547.161 616.951L545.343 622.83C542.741 631.249 533.477 635.622 525.324 632.28L518.681 629.558C513.37 627.381 507.283 628.426 503.002 632.248L500.268 634.689C497.519 637.143 493.963 638.5 490.278 638.5H480.196C474.553 638.5 469.388 635.334 466.828 630.305L461.142 619.137C458.598 614.139 459.054 608.139 462.325 603.583L468.185 595.421C470.015 592.871 471 589.812 471 586.673V561.292C471 555.863 473.934 550.857 478.671 548.204L486.907 543.592C492.374 540.531 499.168 541.19 503.944 545.245Z" fill="#68544F"/>
<path d="M668.173 695.93L674.4 736.897C675.772 745.923 684.822 751.64 693.563 749.003L811.162 713.524C818.683 711.255 823.179 703.569 821.471 695.902L803.615 615.739C802.087 608.879 796.001 604 788.974 604H739.387C736.838 604 734.331 603.35 732.102 602.112L717.285 593.88C707.287 588.326 695 595.555 695 606.993V628.226C695 630.383 694.535 632.515 693.636 634.476L669.367 687.426C668.149 690.084 667.734 693.04 668.173 695.93Z" fill="#6B5049"/>
<path d="M660.503 457.788L679.32 423.474C680.742 420.883 682.897 418.769 685.516 417.398L742.365 387.638C749.838 383.726 759.066 386.742 762.785 394.313L793.177 456.182C796.051 462.032 794.818 469.069 790.126 473.593L756 506.5L751.393 511.107C748.58 513.92 744.765 515.5 740.787 515.5H726.963C721.71 515.5 716.84 512.753 714.124 508.257L708.376 498.743C705.66 494.247 700.79 491.5 695.537 491.5H681.772C676.898 491.5 672.328 489.132 669.518 485.15L661.401 473.651C658.096 468.969 657.748 462.813 660.503 457.788Z" fill="#68544F"/>
</g>
</g>
<mask id="mask2_0_1" style="mask-type:alpha" maskUnits="userSpaceOnUse" x="197" y="0" width="375" height="426">
<path d="M374.001 2.67949C380.189 -0.893164 387.813 -0.893164 394.001 2.67949L561.002 99.0975C567.19 102.67 571.002 109.273 571.002 116.418V309.254C571.002 316.399 567.19 323.001 561.002 326.574L394.001 422.992C387.813 426.565 380.189 426.565 374.001 422.992L207 326.574C200.812 323.001 197 316.399 197 309.254V116.418C197 109.273 200.812 102.67 207 99.0975L374.001 2.67949ZM384 135.453C340.922 135.453 306 170.151 306 212.953C306 255.755 340.922 290.453 384 290.453C427.078 290.453 462 255.755 462 212.953C462 170.151 427.078 135.453 384 135.453Z" fill="#AE774E"/>
</mask>
<g mask="url(#mask2_0_1)">
<mask id="mask3_0_1" style="mask-type:alpha" maskUnits="userSpaceOnUse" x="197" y="0" width="375" height="426">
<path d="M374.001 2.67949C380.189 -0.893164 387.813 -0.893164 394.001 2.67949L561.002 99.0975C567.19 102.67 571.002 109.273 571.002 116.418V309.254C571.002 316.399 567.19 323.001 561.002 326.574L394.001 422.992C387.813 426.565 380.189 426.565 374.001 422.992L207 326.574C200.812 323.001 197 316.399 197 309.254V116.418C197 109.273 200.812 102.67 207 99.0975L374.001 2.67949ZM384 135.453C340.922 135.453 306 170.151 306 212.953C306 255.755 340.922 290.453 384 290.453C427.078 290.453 462 255.755 462 212.953C462 170.151 427.078 135.453 384 135.453Z" fill="#AE774E"/>
</mask>
<g mask="url(#mask3_0_1)">
<path d="M374.001 2.67963C380.189 -0.893021 387.813 -0.893025 394.001 2.67963L561.002 99.0975C567.19 102.67 571.002 109.273 571.002 116.418V309.254C571.002 316.399 567.19 323.002 561.002 326.574L394.001 422.992C387.813 426.565 380.189 426.565 374.001 422.992L207 326.574C200.812 323.002 197 316.399 197 309.254V116.418C197 109.273 200.812 102.67 207 99.0975L374.001 2.67963Z" fill="#D9D9D9"/>
<rect x="197" width="374" height="426" fill="#AE774E"/>
<path d="M273.428 255.424L301.575 275.676C304.127 277.512 307.192 278.5 310.336 278.5H350.157C354.212 278.5 358.094 276.858 360.919 273.949L390 244L439.802 196.939C442.801 194.106 444.5 190.162 444.5 186.037V159.452C444.5 154.758 442.302 150.334 438.562 147.498L413.5 128.5L391.803 115.482C388.114 113.268 383.651 112.745 379.549 114.047L336.467 127.717C334.834 128.235 333.303 129.029 331.938 130.064L320.823 138.496C319.944 139.163 318.993 139.731 317.99 140.19L282.842 156.245C280.33 157.393 278.183 159.212 276.638 161.502L269.702 171.786C266.516 176.511 266.282 182.634 269.099 187.588L275.709 199.213C277.805 202.898 278.243 207.297 276.916 211.323L267.943 238.553C265.893 244.771 268.114 251.6 273.428 255.424Z" fill="#68544F"/>
<path d="M397.039 40.6868L419.082 8.51477C423.933 1.43564 433.723 -0.138735 440.548 5.06271L557.175 93.9399C565.104 99.9824 565.041 111.935 557.05 117.895L527.501 139.932C520.31 145.294 510.053 143.189 505.555 135.429L492.314 112.58C489.916 108.444 485.691 105.698 480.938 105.188L434.542 100.203C430.372 99.7549 426.581 97.5821 424.086 94.2113L397.355 58.0879C393.551 52.9479 393.424 45.9617 397.039 40.6868Z" fill="#68544F"/>
<path d="M328.174 371.884L318.625 376.601C307.501 382.096 307.478 397.951 318.586 403.479L389.967 439C394.372 441.192 399.572 441.085 403.882 438.712L452.126 412.16C457.735 409.072 460.766 402.765 459.672 396.457L457.779 385.535C456.282 376.898 447.73 371.38 439.244 373.575L400.579 383.574C398.228 384.182 395.765 384.211 393.401 383.656L338.24 370.728C334.853 369.934 331.294 370.343 328.174 371.884Z" fill="#68544F"/>
<path d="M464.935 305.068L444.07 309.817C434.292 312.043 429.933 323.506 435.762 331.666C438.953 336.135 444.457 338.332 449.849 337.291L483.59 330.772C484.528 330.591 485.481 330.5 486.436 330.5H514C522.284 330.5 529 323.784 529 315.5V300.5C529 295.658 540.714 280.248 548.949 270.24C551.219 267.481 552.5 264.037 552.5 260.464V219.621C552.5 214.555 549.942 209.83 545.699 207.061L526.115 194.276C520.441 190.572 512.988 191.132 507.931 195.643L501.152 201.689C499.091 203.527 497.577 205.899 496.778 208.543L485.475 245.929C485.159 246.973 484.731 247.98 484.197 248.931L473.251 268.428C470.638 273.082 470.83 278.802 473.748 283.271C479.203 291.623 474.662 302.853 464.935 305.068Z" fill="#68544F"/>
</g>
<path d="M226.716 55H136.91C126.23 55 118.971 65.8442 123.042 75.7177L175.405 202.718C178.706 210.725 188.083 214.28 195.863 210.474L220.477 198.435C224.878 196.282 227.951 192.116 228.707 187.276L234.557 149.832C234.85 147.961 235.494 146.162 236.456 144.531L258.36 107.372C261.21 102.537 261.122 96.5161 258.134 91.7661L239.412 62.0116C236.666 57.6478 231.872 55 226.716 55Z" fill="#6B5049"/>
</g>
<mask id="mask4_0_1" style="mask-type:alpha" maskUnits="userSpaceOnUse" x="0" y="346" width="375" height="426">
<path d="M177.001 348.679C183.189 345.107 190.813 345.107 197.001 348.679L364.002 445.097C370.19 448.67 374.002 455.273 374.002 462.418V655.254C374.002 662.399 370.19 669.001 364.002 672.574L197.001 768.992C190.813 772.565 183.189 772.565 177.001 768.992L10 672.574C3.81221 669.001 9.09946e-05 662.399 0 655.254V462.418C0 455.273 3.8122 448.67 10 445.097L177.001 348.679ZM187 481.453C143.922 481.453 109 516.151 109 558.953C109 601.755 143.922 636.453 187 636.453C230.078 636.453 265 601.755 265 558.953C265 516.151 230.078 481.453 187 481.453Z" fill="#AE774E"/>
</mask>
<g mask="url(#mask4_0_1)">
<mask id="mask5_0_1" style="mask-type:alpha" maskUnits="userSpaceOnUse" x="0" y="346" width="375" height="426">
<path d="M177.001 348.679C183.189 345.107 190.813 345.107 197.001 348.679L364.002 445.097C370.19 448.67 374.002 455.273 374.002 462.418V655.254C374.002 662.399 370.19 669.001 364.002 672.574L197.001 768.992C190.813 772.565 183.189 772.565 177.001 768.992L10 672.574C3.81221 669.001 9.09946e-05 662.399 0 655.254V462.418C0 455.273 3.8122 448.67 10 445.097L177.001 348.679ZM187 481.453C143.922 481.453 109 516.151 109 558.953C109 601.755 143.922 636.453 187 636.453C230.078 636.453 265 601.755 265 558.953C265 516.151 230.078 481.453 187 481.453Z" fill="#AE774E"/>
</mask>
<g mask="url(#mask5_0_1)">
<path d="M177.001 348.68C183.189 345.107 190.813 345.107 197.001 348.68L364.002 445.097C370.19 448.67 374.002 455.273 374.002 462.418V655.254C374.002 662.399 370.19 669.002 364.002 672.574L197.001 768.992C190.813 772.565 183.189 772.565 177.001 768.992L10.0004 672.574C3.81237 669.002 0.00038147 662.399 0.00038147 655.254V462.418C0.00038147 455.273 3.81236 448.67 10.0004 445.097L177.001 348.68Z" fill="#D9D9D9"/>
<rect y="346" width="374" height="426" fill="#AE774E"/>
<path d="M130.543 406.922L117.832 331.716C116.166 321.857 124.43 313.159 134.361 314.318L437.966 349.746C446.247 350.712 452.151 358.245 451.11 366.517L436.733 480.782C435.417 491.24 424.01 497.115 414.732 492.114L326.942 444.789C317.48 439.688 306 446.542 306 457.291C306 469.789 291.023 476.194 281.987 467.562L242.883 430.209C240.372 427.811 237.108 426.358 233.645 426.098L144.21 419.38C137.332 418.863 131.693 413.722 130.543 406.922Z" fill="#6B5049"/>
<path d="M54.7657 587.5L-17.1555 556.15C-26.7569 551.965 -37.5827 558.659 -38.1289 569.118L-46.1759 723.218C-46.6239 731.798 -39.7878 739 -31.1963 739H49.8835C56.2451 739 61.9148 734.987 64.03 728.988L86.1554 666.232C87.3457 662.856 87.2893 659.165 85.9963 655.827L62.7593 595.833C61.3135 592.1 58.4354 589.1 54.7657 587.5Z" fill="#68544F"/>
<path d="M228 726.373V794.62C228 803.778 236.134 810.798 245.193 809.459L375.706 790.169C382.379 789.183 387.573 783.864 388.399 777.169L405.421 639.338C406.525 630.393 399.547 622.5 390.534 622.5H367.818C361.855 622.5 356.458 626.033 354.071 631.498L347.072 647.528C344.371 653.714 337.871 657.334 331.19 656.373L279.748 648.974C273.579 648.087 267.505 651.106 264.487 656.559L229.875 719.111C228.645 721.334 228 723.833 228 726.373Z" fill="#68544F"/>
<path d="M91 503.5V518.248C91 525.15 95.7092 531.161 102.41 532.812L146.826 543.76C155.104 545.8 163.416 540.54 165.115 532.185L172.056 498.057C173.238 492.246 170.885 486.284 166.053 482.846L157.15 476.511C151.726 472.651 144.407 472.829 139.176 476.947L128.583 485.286C125.938 487.368 122.67 488.5 119.304 488.5H106C97.7157 488.5 91 495.216 91 503.5Z" fill="#68544F"/>
</g>
</g>
</svg>
